<svg width="248" height="185" viewBox="0 0 248 185" fill="none" xmlns="http://www.w3.org/2000/svg">
<path opacity="0.15" d="M82.7208 43.6543H5.63281V65.8303H82.7208V43.6543Z" fill="#9C9B9B"/>
<path opacity="0.15" d="M247.808 53.1611H170.72V75.3371H247.808V53.1611Z" fill="#9C9B9B"/>
<path opacity="0.15" d="M41.184 79.5596H0V101.736H41.184V79.5596Z" fill="#9C9B9B"/>
<path opacity="0.15" d="M159.192 43.3921H123.288V65.5681H159.192V43.3921Z" fill="#9C9B9B"/>
<path opacity="0.15" d="M223.784 86.5986H182.6V108.775H223.784V86.5986Z" fill="#9C9B9B"/>
<path d="M105.345 54.5637C110.283 54.5637 114.286 51.4724 114.286 47.659C114.286 43.8457 110.283 40.7544 105.345 40.7544C100.407 40.7544 96.4038 43.8457 96.4038 47.659C96.4038 51.4724 100.407 54.5637 105.345 54.5637Z" fill="#665950"/>
<path d="M107.062 41.7818C107.062 41.7818 100.752 39.1513 97.0132 44.954C93.2739 50.7568 95.8448 50.4468 93.9751 53.929C92.5015 56.673 91.6002 59.8864 91.9228 63.0174C92.2908 66.583 94.3801 69.5308 95.792 72.7279C96.4768 74.2797 97.3379 75.1979 99.0619 75.4017C100.629 75.587 102.244 75.6905 103.82 75.7718C107.2 75.9482 110.644 75.8405 114.023 75.6778C115.673 75.5986 116.868 75.7818 117.42 73.9761" fill="#665950"/>
<path d="M103.639 41.7818C103.639 41.7818 109.948 39.1513 113.687 44.954C117.426 50.7568 114.856 50.4468 116.725 53.929C118.199 56.673 119.101 59.8864 118.777 63.0174C118.409 66.583 116.321 69.5308 114.909 72.7279C114.223 74.2797 113.362 75.1979 111.638 75.4017C110.072 75.587 108.456 75.6905 106.881 75.7718" fill="#665950"/>
<path d="M117.253 72.1252C116.93 71.98 115.85 73.4721 115.726 73.6337C112.962 77.1834 115.264 82.012 116.26 85.7613C116.978 88.4636 117.352 91.2467 117.815 93.9986C118.181 96.1856 118.386 98.6038 119.493 100.57C119.906 101.303 120.724 102.05 121.624 102.078C123.632 102.145 125.512 100.146 125.452 98.1925C125.596 96.6508 125.21 95.118 125.195 93.5767C125.196 93.5741 125.225 75.7383 117.253 72.1252Z" fill="#FFD6BB"/>
<path d="M92.8715 73.5613C93.1788 73.4224 94.2037 74.8412 94.3235 74.9959C96.9514 78.3709 94.7617 82.9613 93.815 86.5269C93.1323 89.0956 92.7754 91.7425 92.3366 94.3587C91.9876 96.438 91.7928 98.7374 90.7405 100.608C90.3482 101.304 89.5705 102.014 88.7146 102.041C86.8048 102.105 85.0175 100.204 85.074 98.3462C84.9383 96.881 85.3053 95.4231 85.3195 93.9574C85.3179 93.9553 85.291 76.997 92.8715 73.5613Z" fill="#FFD6BB"/>
<path d="M114.939 118.604L114.404 176.08L115.063 182.954L108.929 182.753L109.126 176.08L101.836 118.604H114.939Z" fill="#FFD6BB"/>
<path d="M114.404 176.078C114.404 176.078 117.099 182.733 115.911 184.046C115.598 184.392 114.319 181.598 114.319 181.598L114.404 176.078Z" fill="#F6F6F6"/>
<path d="M109.125 176.078C109.125 176.078 106.559 182.733 107.749 184.046C108.062 184.392 109.34 181.598 109.34 181.598L109.125 176.078Z" fill="#F6F6F6"/>
<path d="M111.807 180.079C114.015 180.079 115.807 181.87 115.807 184.078H107.809C107.809 181.87 109.598 180.079 111.807 180.079Z" fill="#F6F6F6"/>
<path d="M95.443 118.604L95.9778 176.08L95.3184 182.954L101.454 182.753L101.255 176.08L108.546 118.604H95.443Z" fill="#FFD6BB"/>
<path d="M95.9779 176.078C95.9779 176.078 93.282 182.733 94.4715 184.046C94.7841 184.392 96.0619 181.598 96.0619 181.598L95.9779 176.078Z" fill="#F6F6F6"/>
<path d="M101.255 176.078C101.255 176.078 103.823 182.733 102.633 184.046C102.32 184.392 101.041 181.598 101.041 181.598L101.255 176.078Z" fill="#F6F6F6"/>
<path d="M98.5748 180.079C96.3646 180.079 94.5747 181.87 94.5747 184.078H102.573C102.574 181.87 100.783 180.079 98.5748 180.079Z" fill="#F6F6F6"/>
<path d="M91.2343 117.817C91.2343 117.817 90.7628 137.458 93.67 149.398H116.334C119.241 137.459 118.769 117.817 118.769 117.817" fill="white"/>
<path d="M100.568 68.7362L101.248 61.4482H108.966L109.646 68.7362L115.121 70.2511L110.593 81.6506H99.6192L95.0947 70.2511L100.568 68.7362Z" fill="#FFC9AB"/>
<path d="M96.5605 58.2194C96.5605 62.5775 102.897 66.1093 104.943 66.1093C106.989 66.1093 113.323 62.5775 113.323 58.2194C113.323 45.1049 109.571 44.6123 104.943 44.6123C100.311 44.6123 96.5605 46.5253 96.5605 58.2194Z" fill="#FFD6BB"/>
<path d="M98.3009 56.97C98.3009 58.3312 97.5227 59.4358 96.5612 59.4358C95.6013 59.4358 94.8198 58.3312 94.8198 56.97C94.8198 55.6094 95.6007 54.5059 96.5612 54.5059C97.5227 54.5059 98.3009 55.6094 98.3009 56.97Z" fill="#FFD6BB"/>
<path d="M114.956 56.97C114.956 58.3312 114.177 59.4358 113.216 59.4358C112.253 59.4358 111.473 58.3312 111.473 56.97C111.473 55.6094 112.253 54.5059 113.216 54.5059C114.177 54.5059 114.956 55.6094 114.956 56.97Z" fill="#FFD6BB"/>
<path d="M111.819 69.8501C111.819 69.8501 109.339 71.7219 105.161 71.7219C100.983 71.7219 98.981 69.8501 98.981 69.8501C98.981 69.8501 99.5026 82.2544 105.161 82.2544C110.819 82.2544 111.819 69.8501 111.819 69.8501Z" fill="white"/>
<path d="M92.2233 89.0719L92.67 92.1364L82.978 85.868L89.4724 71.7451L99.1084 68.8833L105.192 79.862L111.274 68.8833L120.912 71.7451L127.547 85.6943L117.449 92.4258L118.159 89.0719L117.284 104.468L119.399 119.546H90.1752L92.7418 104.586L92.2233 89.0719Z" fill="white"/>
<path d="M89.436 71.8213L92.3073 91.8869L92.3014 91.8959L82.978 85.8662L89.436 71.8213ZM127.547 85.6919L120.912 71.7427L118.029 91.9883L118.092 91.9946L127.547 85.6919Z" fill="white"/>
<path d="M121.948 92.1817C120.655 92.6109 119.338 93.7387 118.804 94.9874C118.155 96.5097 118.249 98.298 118.401 99.9079C118.522 101.205 118.686 102.494 118.957 103.769C119.233 105.068 119.584 106.353 119.788 107.667C119.856 108.109 119.9 108.554 119.903 109.002C119.904 109.412 119.726 109.895 119.763 110.288C119.763 110.292 116.712 111.859 117.105 113.756C117.389 115.119 118.587 115.556 118.587 115.556C118.587 115.556 119.135 118.128 122.828 115.833C126.524 113.54 125.021 112.253 124.844 110.654C124.525 107.796 125.133 106.739 125.453 103.907C125.539 103.164 125.604 102.418 125.652 101.672C125.775 99.7199 125.705 97.8244 125.41 95.8645C125.248 94.7842 125.136 93.1558 124.071 92.4092C123.411 91.9462 122.657 91.9472 121.948 92.1817Z" fill="#FFD6BB"/>
<path d="M88.575 92.1817C89.8681 92.6109 91.1849 93.7387 91.7192 94.9874C92.3681 96.5097 92.2742 98.298 92.1226 99.9079C92.0007 101.205 91.8375 102.494 91.5666 103.769C91.2894 105.068 90.9388 106.353 90.7345 107.667C90.6664 108.109 90.6231 108.554 90.6199 109.002C90.6189 109.412 90.7963 109.895 90.7604 110.288C90.7604 110.292 93.8117 111.859 93.4178 113.756C93.1343 115.119 91.9357 115.556 91.9357 115.556C91.9357 115.556 91.3882 118.128 87.6953 115.833C83.9988 113.54 85.502 112.253 85.6789 110.654C85.9978 107.796 85.3906 106.739 85.0701 103.907C84.9835 103.164 84.9186 102.418 84.8716 101.672C84.7486 99.7199 84.8172 97.8244 85.1124 95.8645C85.2755 94.7842 85.3869 93.1558 86.4519 92.4092C87.1114 91.9462 87.8664 91.9472 88.575 92.1817Z" fill="#FFD6BB"/>
<path d="M109.17 44.2402C109.17 44.2402 110.958 45.8632 109.711 47.3327C107.463 49.9795 100.946 53.2758 95.9831 53.8313C95.9831 53.8313 94.4556 39.7469 109.17 44.2402Z" fill="#665950"/>
<path d="M103.299 44.0604C103.299 44.0604 107.417 51.6784 113.582 52.6388C113.582 52.6388 115.238 40.6427 103.299 44.0604Z" fill="#665950"/>
<path d="M127.674 85.7221L121.428 71.7412L111.275 68.8789L105.26 71.0316C105.713 73.8859 112.602 87.6129 112.113 98.0694C111.784 105.101 110.55 119.341 109.614 125.138L119.4 119.542L117.285 104.463L117.99 92.0618L127.674 85.7221Z" fill="#A87A53"/>
<path d="M82.7778 85.8163L89.2891 71.6601L99.1342 68.8379L105.196 71.0338C104.743 73.8882 97.8554 87.6151 98.3433 98.0717C98.6717 105.103 99.9062 119.344 100.842 125.141L89.9185 119.544L92.6583 104.565L92.2385 92.062L82.7778 85.8163Z" fill="#A87A53"/>
<path d="M105.208 72.1438C105.788 72.1438 106.258 71.6737 106.258 71.0936C106.258 70.5136 105.788 70.0435 105.208 70.0435C104.628 70.0435 104.158 70.5136 104.158 71.0936C104.158 71.6737 104.628 72.1438 105.208 72.1438Z" fill="white"/>
<path d="M112.167 61.2045C112.167 64.1602 108.904 65.1096 104.879 65.1096C100.854 65.1096 97.5903 64.1597 97.5903 61.2045C97.5903 58.2477 100.744 57.9863 104.769 57.9863C108.794 57.9863 112.167 58.2482 112.167 61.2045Z" fill="white"/>
<path d="M113.154 53.1934L110.085 58.8921L110.495 59.6043L113.427 54.6184" fill="white"/>
<path d="M111.262 61.8258L111.673 62.5386L113.098 60.2851L113.18 59.4224L111.262 61.8258Z" fill="white"/>
<path d="M96.5429 53.1709L99.6116 58.8701L99.2003 59.5819L96.3301 54.5067" fill="white"/>
<path d="M98.433 61.801L98.0223 62.5138L96.8168 60.3079L96.7007 59.3765L98.433 61.801Z" fill="white"/>
<path d="M117.92 84.624H62.1284V117.536H117.92V84.624Z" fill="#3F3E3E"/>
<path d="M92.8401 109.526H87.2085V121.494H92.8401V109.526Z" fill="#3F3E3E"/>
<path d="M188.672 103.587H153.296V120.747H188.672V103.587Z" fill="#3F3E3E"/>
<path d="M186.384 96.373H155.584V113.533H186.384V96.373Z" fill="#3F3E3E"/>
<path d="M185.153 108.956H156.816V115.38H185.153V108.956Z" fill="white"/>
<path d="M174.064 89.1543H167.904V106.315H174.064V89.1543Z" fill="#3F3E3E"/>
<path d="M183.92 82.7319H158.048V90.9159H183.92V82.7319Z" fill="#3F3E3E"/>
<path d="M170.896 113.707C171.819 113.707 172.568 112.959 172.568 112.035C172.568 111.112 171.819 110.364 170.896 110.364C169.973 110.364 169.225 111.112 169.225 112.035C169.225 112.959 169.973 113.707 170.896 113.707Z" fill="#3F3E3E"/>
<path d="M182.204 84.1182H159.764V89.5302H182.204V84.1182Z" fill="white"/>
<g opacity="0.5">
<path d="M192.247 32.4448H59.6108C56.4064 32.4448 53.8081 35.0436 53.8081 38.2481V114.817C53.8081 118.021 56.4064 120.62 59.6108 120.62H102.444V108.601H149.117V120.62H192.247C195.452 120.62 198.049 118.021 198.049 114.817V38.2481C198.049 35.0436 195.452 32.4448 192.247 32.4448Z" fill="#A7E3E8"/>
<path d="M237.512 113.353C237.512 117.435 234.203 120.745 230.12 120.745H206.624C202.542 120.745 199.232 117.435 199.232 113.353V39.9608C199.232 35.8789 202.542 32.5688 206.624 32.5688H230.12C234.203 32.5688 237.512 35.8789 237.512 39.9608V113.353Z" fill="#A7E3E8"/>
<path d="M52.4485 113.353C52.4485 117.435 49.139 120.745 45.0565 120.745H21.5605C17.478 120.745 14.1685 117.435 14.1685 113.353V39.9608C14.1685 35.8789 17.478 32.5688 21.5605 32.5688H45.0565C49.139 32.5688 52.4485 35.8789 52.4485 39.9608V113.353Z" fill="#A7E3E8"/>
</g>
<path opacity="0.45" d="M53.8081 38.2481C53.8081 35.0436 56.4063 32.4448 59.6108 32.4448H89.1835L53.8081 67.8208V38.2481ZM14.1685 107.46L52.4485 69.1804V39.9609C52.4485 35.8789 49.139 32.5689 45.0565 32.5689H40.6529L14.1685 59.0534V107.46ZM198.049 56.4921L145.94 108.601H149.118V120.62H158.041L198.049 80.6111V56.4921ZM52.4485 113.353V91.5254L23.2289 120.745H45.0565C49.139 120.745 52.4485 117.435 52.4485 113.353ZM237.512 39.9609C237.512 35.8789 234.203 32.5689 230.12 32.5689H221.972L199.232 55.3083V79.4273L237.512 41.1473V39.9609ZM111.53 32.4448L53.8086 90.1663V114.817C53.8086 118.021 56.4069 120.62 59.6113 120.62H86.5462L174.721 32.4448H111.53Z" fill="white"/>
<path d="M231.881 126.077H19.7998V184.378H231.881V126.077Z" fill="#FFA971"/>
<path d="M247.783 120.603H3.89844V130.008H247.783V120.603Z" fill="#FF9149"/>
<path d="M55.7107 30.7871H50.4302V120.591H55.7107V30.7871Z" fill="#FFB381"/>
<path d="M201.235 30.7871H195.955V120.591H201.235V30.7871Z" fill="#FFB381"/>
<path d="M111.895 142.204H117.698L118.808 145.632L115.023 150.003H107.429L106.571 152.338H116.26L119.843 148.364L121.231 152.338H124.914L122.29 146.079L128.093 139.886H124.375L121.479 143.428L119.926 139.769H112.322L111.895 142.204Z" fill="white"/>
<path d="M127.419 152.092L131.086 139.75H133.9L132.587 144.568H136.003L137.479 139.75H140.089L137.275 150.014H145L144.35 152.338H133.9L135.353 147.214H131.762L130.195 152.338H127.311L127.419 152.092Z" fill="white"/>
<path d="M113.026 153.994L113.963 155.796L111.982 156.941C111.982 156.941 111.986 156.957 111.998 157.004C112.293 157.455 113.267 161.093 118.725 164.445C124.563 168.029 130.641 165.59 130.641 165.59C130.641 165.59 134.245 164.024 136.495 161.408C138.745 158.792 139.737 156.573 139.737 156.573L137.604 155.369C137.604 155.369 138.582 153.496 138.615 153.626C138.647 153.755 144.42 157.113 144.42 157.113L143.605 158.921L141.55 157.694C141.55 157.694 139.234 163.83 132.907 167.027C126.58 170.223 118.896 167 118.896 167C118.896 167 115.084 165.331 112.312 161.618C111.023 159.891 111.046 159.776 110.777 159.303C110.558 158.918 110.362 158.521 110.19 158.114L108.187 159.303L107.241 157.25L113.026 153.994Z" fill="white"/>
<path d="M107.429 163.675L110.582 161.913L112.098 163.757L111.548 164.063L110.507 162.798L109.757 163.219L110.72 164.389L110.169 164.695L109.206 163.525L108.455 163.947L109.5 165.218L108.95 165.524L107.429 163.675Z" fill="white"/>
<path d="M114.881 165.659L114.64 166.878L114.662 166.893L116.046 166.432L116.74 166.893L114.693 167.558L114.384 169.377L113.709 168.929L113.94 167.701L113.918 167.686L112.528 168.145L111.831 167.682L113.906 167.035L114.223 165.221L114.881 165.659Z" fill="white"/>
<path d="M117.548 171.435L118.989 168.16L120.358 168.497C120.62 168.561 120.823 168.663 120.966 168.803C121.111 168.943 121.195 169.108 121.219 169.299C121.244 169.49 121.209 169.694 121.114 169.912C121.018 170.13 120.883 170.31 120.711 170.452C120.539 170.593 120.339 170.687 120.11 170.734C119.881 170.78 119.633 170.771 119.365 170.705L118.493 170.491L118.736 169.936L119.49 170.121C119.632 170.156 119.76 170.162 119.872 170.138C119.986 170.114 120.084 170.067 120.166 169.996C120.248 169.924 120.312 169.834 120.358 169.726C120.406 169.616 120.425 169.515 120.415 169.423C120.405 169.331 120.363 169.251 120.291 169.183C120.219 169.115 120.113 169.063 119.972 169.029L119.477 168.907L118.282 171.615L117.548 171.435Z" fill="white"/>
<path d="M123.974 173.375L124.609 169.609H126.118C126.407 169.609 126.645 169.659 126.832 169.76C127.02 169.86 127.152 170.003 127.228 170.188C127.305 170.372 127.323 170.589 127.282 170.839C127.24 171.089 127.148 171.304 127.007 171.483C126.868 171.662 126.686 171.8 126.462 171.897C126.239 171.992 125.981 172.04 125.687 172.04H124.676L124.788 171.4H125.666C125.821 171.4 125.953 171.379 126.062 171.338C126.172 171.296 126.258 171.233 126.322 171.15C126.387 171.067 126.429 170.963 126.449 170.839C126.47 170.713 126.463 170.608 126.426 170.523C126.39 170.437 126.325 170.372 126.23 170.328C126.136 170.283 126.011 170.26 125.857 170.26H125.311L124.783 173.375H123.974ZM126.327 171.661L126.991 173.375H126.098L125.455 171.661H126.327Z" fill="white"/>
<path d="M130.808 172.79L130.455 169.238L132.783 168.623L132.844 169.243L131.246 169.665L131.332 170.511L132.81 170.121L132.87 170.74L131.392 171.13L131.478 171.978L133.083 171.554L133.143 172.174L130.808 172.79Z" fill="white"/>
<path d="M137.602 166.617C137.546 166.485 137.46 166.402 137.344 166.369C137.229 166.336 137.09 166.357 136.925 166.433C136.813 166.484 136.723 166.544 136.656 166.613C136.588 166.681 136.542 166.753 136.518 166.83C136.494 166.905 136.493 166.98 136.515 167.055C136.53 167.118 136.557 167.166 136.597 167.2C136.637 167.233 136.685 167.256 136.742 167.268C136.8 167.278 136.864 167.281 136.934 167.277C137.003 167.271 137.075 167.261 137.148 167.246L137.459 167.187C137.61 167.156 137.752 167.141 137.886 167.143C138.02 167.145 138.142 167.166 138.252 167.208C138.363 167.25 138.458 167.315 138.537 167.404C138.616 167.492 138.676 167.608 138.717 167.751C138.776 167.962 138.778 168.168 138.722 168.368C138.666 168.567 138.556 168.752 138.393 168.923C138.23 169.092 138.016 169.238 137.752 169.359C137.491 169.479 137.251 169.541 137.033 169.545C136.815 169.549 136.629 169.492 136.473 169.375C136.318 169.257 136.202 169.075 136.126 168.831L136.789 168.526C136.829 168.639 136.887 168.721 136.964 168.773C137.042 168.823 137.133 168.846 137.238 168.842C137.342 168.837 137.453 168.808 137.571 168.754C137.689 168.7 137.785 168.635 137.86 168.561C137.936 168.485 137.988 168.405 138.017 168.319C138.046 168.234 138.049 168.15 138.025 168.067C138.004 167.99 137.964 167.935 137.906 167.902C137.848 167.869 137.773 167.853 137.679 167.854C137.587 167.854 137.477 167.866 137.352 167.891L136.972 167.959C136.679 168.014 136.433 168.002 136.233 167.925C136.033 167.847 135.896 167.681 135.822 167.428C135.765 167.219 135.766 167.013 135.828 166.809C135.89 166.604 136.001 166.415 136.161 166.244C136.322 166.072 136.521 165.931 136.757 165.823C136.998 165.712 137.221 165.66 137.425 165.666C137.629 165.671 137.804 165.729 137.948 165.839C138.093 165.95 138.197 166.109 138.259 166.315L137.602 166.617Z" fill="white"/>
<path d="M141.469 162.609C141.367 162.507 141.255 162.462 141.136 162.474C141.017 162.486 140.895 162.557 140.771 162.688C140.687 162.776 140.627 162.865 140.59 162.954C140.553 163.042 140.538 163.126 140.545 163.206C140.552 163.285 140.579 163.355 140.628 163.416C140.666 163.468 140.71 163.503 140.759 163.52C140.809 163.536 140.862 163.539 140.92 163.529C140.977 163.517 141.037 163.497 141.1 163.467C141.163 163.436 141.225 163.401 141.288 163.359L141.554 163.19C141.682 163.105 141.808 163.039 141.932 162.992C142.057 162.944 142.179 162.919 142.297 162.917C142.415 162.915 142.528 162.94 142.635 162.993C142.743 163.046 142.843 163.132 142.935 163.249C143.07 163.423 143.149 163.613 143.174 163.819C143.198 164.024 143.166 164.236 143.08 164.455C142.993 164.672 142.85 164.886 142.652 165.096C142.455 165.304 142.256 165.45 142.056 165.533C141.855 165.617 141.661 165.634 141.472 165.583C141.283 165.53 141.107 165.404 140.943 165.206L141.442 164.679C141.521 164.768 141.606 164.823 141.698 164.843C141.789 164.861 141.882 164.849 141.978 164.806C142.073 164.763 142.165 164.695 142.254 164.601C142.342 164.508 142.407 164.413 142.448 164.316C142.489 164.218 142.507 164.124 142.502 164.034C142.496 163.944 142.467 163.865 142.413 163.798C142.364 163.734 142.306 163.697 142.24 163.688C142.174 163.679 142.098 163.692 142.012 163.727C141.925 163.761 141.829 163.813 141.722 163.882L141.395 164.086C141.145 164.244 140.912 164.324 140.697 164.326C140.482 164.328 140.292 164.225 140.128 164.017C139.995 163.845 139.918 163.653 139.897 163.441C139.876 163.228 139.908 163.012 139.992 162.795C140.075 162.575 140.206 162.372 140.384 162.184C140.565 161.993 140.751 161.862 140.943 161.792C141.134 161.722 141.318 161.711 141.494 161.76C141.671 161.809 141.827 161.918 141.963 162.087L141.469 162.609Z" fill="white"/>
<path d="M78.9794 7.84103C78.9794 10.32 76.9698 12.329 74.4914 12.329H22.571C20.0931 12.329 18.083 10.32 18.083 7.84103C18.083 5.36312 20.0931 3.35303 22.571 3.35303H74.4914C76.9698 3.35303 78.9794 5.36312 78.9794 7.84103Z" fill="#A7E3E8"/>
<path d="M82.9398 0.0981445H15.0918V8.45797H82.9398V0.0981445Z" fill="#9C9B9B"/>
<path d="M155.804 7.84103C155.804 10.32 153.794 12.329 151.316 12.329H99.3952C96.9173 12.329 94.9072 10.32 94.9072 7.84103C94.9072 5.36312 96.9173 3.35303 99.3952 3.35303H151.316C153.794 3.35303 155.804 5.36312 155.804 7.84103Z" fill="#A7E3E8"/>
<path d="M159.764 0.0981445H91.916V8.45797H159.764V0.0981445Z" fill="#9C9B9B"/>
<path d="M232.627 7.84103C232.627 10.32 230.618 12.329 228.139 12.329H176.219C173.741 12.329 171.731 10.32 171.731 7.84103C171.731 5.36312 173.741 3.35303 176.219 3.35303H228.139C230.618 3.35303 232.627 5.36312 232.627 7.84103Z" fill="#A7E3E8"/>
<path d="M236.588 0.0981445H168.74V8.45797H236.588V0.0981445Z" fill="#9C9B9B"/>
</svg>
