<svg width="16" height="16" viewBox="0 0 16 16" fill="none" xmlns="http://www.w3.org/2000/svg">
<g clip-path="url(#clip0_540_39136)">
<path d="M8 0C3.5888 0 0 3.5888 0 8C0 12.4112 3.5888 16 8 16C12.4112 16 16 12.4112 16 8C16 3.5888 12.4112 0 8 0ZM8 14.5455C4.39079 14.5455 1.45455 11.6092 1.45455 8C1.45455 4.39084 4.39079 1.45455 8 1.45455C11.6092 1.45455 14.5455 4.39084 14.5455 8C14.5455 11.6092 11.6092 14.5455 8 14.5455Z" fill="#444240"/>
<path d="M10.9999 5.17161L6.88577 9.2857L5.00019 7.40007C4.71622 7.1161 4.25571 7.11605 3.97169 7.40002C3.68766 7.68405 3.68766 8.14451 3.97169 8.42853L6.37149 10.8284C6.50788 10.9648 6.69285 11.0415 6.88572 11.0415H6.88577C7.07864 11.0415 7.26361 10.9648 7.4 10.8285L12.0284 6.20017C12.3124 5.91615 12.3124 5.45568 12.0284 5.17166C11.7444 4.88764 11.2839 4.88759 10.9999 5.17161Z" fill="#444240"/>
</g>
<defs>
<clipPath id="clip0_540_39136">
<rect width="16" height="16" fill="white"/>
</clipPath>
</defs>
</svg>
